<svg xmlns="http://www.w3.org/2000/svg" viewBox="0 0 1024 1024" role="img" aria-label="Sunshine no cloud icon">
  <defs>
    <radialGradient id="outerSun" cx="45%" cy="39%" r="65%">
      <stop offset="0" stop-color="#fff2a0"/>
      <stop offset=".58" stop-color="#ffe375"/>
      <stop offset="1" stop-color="#ffc94d"/>
    </radialGradient>
    <radialGradient id="faceSun" cx="45%" cy="39%" r="62%">
      <stop offset="0" stop-color="#fff5ad"/>
      <stop offset=".72" stop-color="#ffec87"/>
      <stop offset="1" stop-color="#ffdf62"/>
    </radialGradient>
    <radialGradient id="cheekGlow" cx="50%" cy="50%" r="50%">
      <stop offset="0" stop-color="#ffd66c" stop-opacity=".72"/>
      <stop offset="1" stop-color="#ffd66c" stop-opacity="0"/>
    </radialGradient>
    <radialGradient id="cheekPink" cx="50%" cy="44%" r="56%">
      <stop offset="0" stop-color="#ffb0b9"/>
      <stop offset="1" stop-color="#f79aaa"/>
    </radialGradient>
    <linearGradient id="orangeStroke" x1="201.552" y1="140.418" x2="815.761" y2="850.149" gradientUnits="userSpaceOnUse">
      <stop offset="0" stop-color="#d7861e"/>
      <stop offset=".52" stop-color="#ef9e28"/>
      <stop offset="1" stop-color="#d47e19"/>
    </linearGradient>
    <filter id="softPaint" x="-12%" y="-12%" width="124%" height="124%">
      <feGaussianBlur in="SourceAlpha" stdDeviation="2" result="blur"/>
      <feOffset in="blur" dx="0" dy="2" result="offset"/>
      <feComposite in="offset" in2="SourceAlpha" operator="out" result="shadow"/>
      <feColorMatrix in="shadow" type="matrix" values="0 0 0 0 0.80 0 0 0 0 0.45 0 0 0 0 0.08 0 0 0 .35 0"/>
      <feMerge>
        <feMergeNode/>
        <feMergeNode in="SourceGraphic"/>
      </feMerge>
    </filter>
    <style>
      .cut{fill:none;stroke:#dc8b22;stroke-width:4;stroke-linecap:round;stroke-linejoin:round;opacity:.72}
      .faceLine{fill:none;stroke:#ee9e29;stroke-width:22;stroke-linecap:round}
      .eye{fill:#de841b}
      .mouth{fill:none;stroke:#dc841c;stroke-width:15;stroke-linecap:round;stroke-linejoin:round}
      .rayFill{fill:#ffe77a}
      .rayOuter{fill:none;stroke:url(#orangeStroke);stroke-width:12;stroke-linecap:round;stroke-linejoin:round}
      .cutTaper{fill:url(#orangeStroke)}
    </style>
    <path id="rayCutTaper" class="cutTaper" d="
      M586.78 144.776
      L592.781 140.647
      L599.072 136.533
      L605.642 132.503
      L612.479 128.626
      L619.568 124.97
      L626.896 121.601
      L634.446 118.584
      L642.204 115.983
      L650.154 113.856
      L658.282 112.261
      L655.682 100.546
      L647.018 103.312
      L638.734 106.604
      L630.825 110.345
      L623.285 114.462
      L616.109 118.884
      L609.291 123.543
      L602.827 128.371
      L596.711 133.304
      L590.943 138.276
      L585.518 143.224 Z"/>
    <g id="rayPetal" transform="rotate(-8 713.552 280.835)">
      <path class="rayFill" d="M 555.94 181.492 C 582.686 128.955 653.373 94.567 735.522 96.477 C 767.044 97.432 788.059 106.985 797.612 114.627 C 771.821 124.179 761.313 154.746 768.955 187.224 C 776.597 220.656 799.522 237.85 820.537 248.358 C 786.149 248.358 747.94 259.821 713.552 280.835 C 666.746 231.164 610.388 198.686 555.94 181.492 Z"/>
      <path class="rayOuter" d="M 656.982 106.404 C 680.986 99.374 707.591 95.828 735.522 96.477 C 767.044 97.432 788.059 106.985 797.612 114.627 C 771.821 124.179 761.313 154.746 768.955 187.224 C 779.462 218.746 800.477 237.85 822.068 244.666"/>
      <use href="#rayCutTaper"/>
    </g>
    <g id="rayPetalLeftArc" transform="rotate(-8 713.552 280.835)">
      <path class="rayOuter" d="M 656.982 106.404 C 680.986 99.374 707.591 95.828 735.522 96.477 C 767.044 97.432 788.059 106.985 797.612 114.627"/>
      <use href="#rayCutTaper"/>
    </g>
  </defs>

  <g filter="url(#softPaint)">
    <use href="#rayPetal"/>
    <use href="#rayPetal" transform="rotate(30 512 513.91)"/>
    <use href="#rayPetal" transform="rotate(60 512 513.91)"/>
    <use href="#rayPetal" transform="rotate(90 512 513.91)"/>
    <use href="#rayPetal" transform="rotate(120 512 513.91)"/>
    <use href="#rayPetal" transform="rotate(150 512 513.91)"/>
    <use href="#rayPetal" transform="rotate(180 512 513.91)"/>
    <use href="#rayPetal" transform="rotate(210 512 513.91)"/>
    <use href="#rayPetal" transform="rotate(240 512 513.91)"/>
    <use href="#rayPetal" transform="rotate(270 512 513.91)"/>
    <use href="#rayPetal" transform="rotate(300 512 513.91)"/>
    <use href="#rayPetal" transform="rotate(330 512 513.91)"/>
    <use href="#rayPetalLeftArc"/>

    <circle cx="512" cy="513.91" r="314.269" fill="#ffec87"/>
    <circle class="faceLine" cx="512" cy="513.91" r="314.269"/>

    <circle class="eye" cx="377.313" cy="491.94" r="37.254"/>
    <circle class="eye" cx="645.731" cy="491.94" r="37.254"/>

    <ellipse cx="326.686" cy="563.582" rx="63.045" ry="53.493" fill="#ffd66c" opacity=".34"/>
    <ellipse cx="705.91" cy="563.582" rx="63.045" ry="53.493" fill="#ffd66c" opacity=".34"/>
    <ellipse cx="325.731" cy="563.582" rx="42.03" ry="25.791" fill="#f8a1ae" opacity=".95"/>
    <ellipse cx="704" cy="563.582" rx="42.03" ry="25.791" fill="#f8a1ae" opacity=".95"/>

    <path class="mouth" d="M 462.328 542.567 c 0 30.567 41.075 30.567 48.716 0.955 c 7.642 29.612 48.716 29.612 48.716 -0.955"/>

    <path fill="#fff7b8" opacity=".18" d="M 232.119 437.492 C 267.462 300.895 380.179 216.835 517.731 215.88 C 658.149 214.925 774.686 305.671 807.164 442.268 C 746.985 322.865 637.134 256 514.865 256.955 C 391.641 257.91 289.432 323.821 232.119 437.492 Z"/>
  </g>
</svg>
