<svg xmlns="http://www.w3.org/2000/svg" viewBox="0 0 1024 1024" role="img" aria-label="Sunshine no cloud icon">
  <defs>
    <radialGradient id="outerSun" cx="45%" cy="39%" r="65%">
      <stop offset="0" stop-color="#fff2a0"/>
      <stop offset=".58" stop-color="#ffe375"/>
      <stop offset="1" stop-color="#ffc94d"/>
    </radialGradient>
    <radialGradient id="faceSun" cx="45%" cy="39%" r="62%">
      <stop offset="0" stop-color="#fff5ad"/>
      <stop offset=".72" stop-color="#ffec87"/>
      <stop offset="1" stop-color="#ffdf62"/>
    </radialGradient>
    <radialGradient id="cheekGlow" cx="50%" cy="50%" r="50%">
      <stop offset="0" stop-color="#ffd66c" stop-opacity=".72"/>
      <stop offset="1" stop-color="#ffd66c" stop-opacity="0"/>
    </radialGradient>
    <radialGradient id="cheekPink" cx="50%" cy="44%" r="56%">
      <stop offset="0" stop-color="#ffb0b9"/>
      <stop offset="1" stop-color="#f79aaa"/>
    </radialGradient>
    <linearGradient id="orangeStroke" x1="188.507" y1="122.814" x2="828.525" y2="862.368" gradientUnits="userSpaceOnUse">
      <stop offset="0" stop-color="#d7861e"/>
      <stop offset=".52" stop-color="#ef9e28"/>
      <stop offset="1" stop-color="#d47e19"/>
    </linearGradient>
    <filter id="softPaint" x="-12%" y="-12%" width="124%" height="124%">
      <feGaussianBlur in="SourceAlpha" stdDeviation="2" result="blur"/>
      <feOffset in="blur" dx="0" dy="2" result="offset"/>
      <feComposite in="offset" in2="SourceAlpha" operator="out" result="shadow"/>
      <feColorMatrix in="shadow" type="matrix" values="0 0 0 0 0.80 0 0 0 0 0.45 0 0 0 0 0.08 0 0 0 .35 0"/>
      <feMerge>
        <feMergeNode/>
        <feMergeNode in="SourceGraphic"/>
      </feMerge>
    </filter>
    <style>
      .cut{fill:none;stroke:#dc8b22;stroke-width:4;stroke-linecap:round;stroke-linejoin:round;opacity:.72}
      .faceLine{fill:none;stroke:#ee9e29;stroke-width:22;stroke-linecap:round}
      .eye{fill:#de841b}
      .mouth{fill:none;stroke:#dc841c;stroke-width:15;stroke-linecap:round;stroke-linejoin:round}
      .rayFill{fill:#ffe77a}
      .rayOuter{fill:none;stroke:url(#orangeStroke);stroke-width:12;stroke-linecap:round;stroke-linejoin:round}
      .cutTaper{fill:url(#orangeStroke)}
    </style>
    <path id="rayCutTaper" class="cutTaper" d="
      M589.895 127.305
      L596.136 122.985
      L602.681 118.68
      L609.518 114.462
      L616.634 110.402
      L624.016 106.573
      L631.647 103.042
      L639.514 99.878
      L647.601 97.146
      L655.891 94.91
      L664.37 93.229
      L661.778 81.512
      L652.76 84.365
      L644.134 87.766
      L635.895 91.638
      L628.038 95.902
      L620.557 100.487
      L613.447 105.319
      L606.703 110.33
      L600.321 115.451
      L594.299 120.614
      L588.634 125.753 Z"/>
    <g id="rayPetal" transform="rotate(-8 722.021 269.131)">
      <path class="rayFill" d="M 557.786 165.614 C 585.656 110.869 659.313 75.036 744.914 77.027 C 777.761 78.022 799.659 87.976 809.613 95.939 C 782.739 105.893 771.789 137.744 779.752 171.587 C 787.715 206.424 811.604 224.34 833.502 235.29 C 797.669 235.29 757.854 247.234 722.021 269.131 C 673.248 217.373 614.522 183.53 557.786 165.614 Z"/>
      <path class="rayOuter" d="M 663.074 87.371 C 688.087 80.045 715.81 76.35 744.914 77.027 C 777.761 78.022 799.659 87.976 809.613 95.939 C 782.739 105.893 771.789 137.744 779.752 171.587 C 790.701 204.433 812.599 224.34 835.097 231.443"/>
      <use href="#rayCutTaper"/>
    </g>
    <g id="rayPetalLeftArc" transform="rotate(-8 722.021 269.131)">
      <path class="rayOuter" d="M 663.074 87.371 C 688.087 80.045 715.81 76.35 744.914 77.027 C 777.761 78.022 799.659 87.976 809.613 95.939"/>
      <use href="#rayCutTaper"/>
    </g>
  </defs>

  <g filter="url(#softPaint)">
    <use href="#rayPetal"/>
    <use href="#rayPetal" transform="rotate(30 512 512)"/>
    <use href="#rayPetal" transform="rotate(60 512 512)"/>
    <use href="#rayPetal" transform="rotate(90 512 512)"/>
    <use href="#rayPetal" transform="rotate(120 512 512)"/>
    <use href="#rayPetal" transform="rotate(150 512 512)"/>
    <use href="#rayPetal" transform="rotate(180 512 512)"/>
    <use href="#rayPetal" transform="rotate(210 512 512)"/>
    <use href="#rayPetal" transform="rotate(240 512 512)"/>
    <use href="#rayPetal" transform="rotate(270 512 512)"/>
    <use href="#rayPetal" transform="rotate(300 512 512)"/>
    <use href="#rayPetal" transform="rotate(330 512 512)"/>
    <use href="#rayPetalLeftArc"/>

    <circle cx="512" cy="512" r="327.474" fill="#ffec87"/>
    <circle class="faceLine" cx="512" cy="512" r="327.474"/>

    <ellipse cx="318.899" cy="563.759" rx="65.694" ry="55.741" fill="#ffd66c" opacity=".34"/>
    <ellipse cx="705.101" cy="563.759" rx="65.694" ry="55.741" fill="#ffd66c" opacity=".34"/>
    <ellipse cx="317.904" cy="563.759" rx="43.796" ry="26.875" fill="#f8a1ae" opacity=".95"/>
    <ellipse cx="706.096" cy="563.759" rx="43.796" ry="26.875" fill="#f8a1ae" opacity=".95"/>

    <circle class="eye" cx="371.654" cy="489.107" r="38.819"/>
    <circle class="eye" cx="652.346" cy="489.107" r="38.819"/>

    <path class="mouth" d="M 461.237 541.861 c 0 31.851 42.801 31.851 50.763 0.995 c 7.963 30.856 50.763 30.856 50.763 -0.995"/>

    <path fill="#fff7b8" opacity=".18" d="M 220.359 432.371 C 257.187 290.034 374.64 202.442 517.972 201.447 C 664.29 200.452 785.724 295.011 819.567 437.348 C 756.859 312.927 642.392 243.253 514.985 244.248 C 386.584 245.243 280.08 313.924 220.359 432.371 Z"/>
  </g>
</svg>
